<?xml version="1.0" encoding="UTF-8"?>
<svg width="5000" height="1000" version="1.1" viewBox="0 0 143.02 26.458" xmlns="http://www.w3.org/2000/svg" xmlns:cc="http://creativecommons.org/ns#" xmlns:dc="http://purl.org/dc/elements/1.1/" xmlns:rdf="http://www.w3.org/1999/02/22-rdf-syntax-ns#">
 <metadata>
  <rdf:RDF>
   <cc:Work rdf:about="">
    <dc:format>image/svg+xml</dc:format>
    <dc:type rdf:resource="http://purl.org/dc/dcmitype/StillImage"/>
    <dc:title/>
   </cc:Work>
  </rdf:RDF>
 </metadata>
 <g transform="translate(-93.735 -149.4)">
  <g transform="matrix(.86293 0 0 .86293 104.82 155.64)" fill="#464646">
   <!--
   <path d="m19.581 0.47706h3.8061v9.5606h11.48v-9.5606h3.8367v22.957h-3.8367v-9.5575h-11.48v9.5575h-3.8061z"/>
   <path d="m63.929 23.434-4.4315-7.6412h-6.4828v7.6412h-3.8071v-22.957h11.48c2.0947 0 3.8945 0.74966 5.3917 2.2464 1.5014 1.5039 2.2495 3.2981 2.2495 5.3922 0 1.5908-0.45327 3.0344-1.3562 4.335-0.88457 1.2786-2.0062 2.1933-3.3758 2.7472l4.732 8.2361zm-3.2414-19.122h-7.6729v7.6448h7.6729c1.0343 0 1.9281-0.37866 2.6782-1.1242 0.75017-0.75171 1.1258-1.6572 1.1258-2.7166 0-1.0343-0.3756-1.9255-1.1258-2.6782-0.74966-0.75017-1.6434-1.1258-2.6782-1.1258z"/>
   <path d="m94.113 0.47706v3.8352h-11.478v5.7571h11.478v3.8071h-11.478v5.7218h11.478v3.8357h-15.277v-22.957z"/>
   <path d="m119.49 19.58h-10.586l-1.9582 3.8536h-4.2834l11.517-23.519 11.522 23.519h-4.2834zm-8.698-3.8132h6.7771l-3.3896-7.2544z"/>
   <path d="m133.77 0.47706h7.6382c1.5688 0 3.0441 0.30354 4.4361 0.90654 1.3869 0.60913 2.6082 1.4375 3.6558 2.4846 1.0466 1.0471 1.8688 2.2658 2.4794 3.6533 0.60912 1.3915 0.90858 2.8658 0.90858 4.4351 0 1.5632-0.29946 3.0405-0.90858 4.4315-0.61016 1.391-1.4252 2.6082-2.4641 3.6543-1.0374 1.0496-2.2561 1.8744-3.6558 2.4805-1.4007 0.60658-2.8821 0.91012-4.4509 0.91012h-7.6382v-22.956zm7.6382 19.121c1.0598 0 2.0543-0.1993 2.9782-0.59891 0.92495-0.39399 1.7375-0.94487 2.4324-1.6542 0.696-0.70214 1.2413-1.5213 1.6378-2.4462 0.39655-0.92494 0.59738-1.9071 0.59738-2.9419 0-1.0374-0.20083-2.0195-0.59738-2.9481-0.39655-0.92494-0.9464-1.7369-1.6506-2.4467-0.70877-0.70265-1.5244-1.2561-2.4498-1.6531-0.92544-0.39655-1.9071-0.59687-2.948-0.59687h-3.8342v15.286z"/>
   -->
   <path d="m3.6593 23.434h-3.828v-19.128h-5.7489c-1.7053 0-3.1019 1.391-3.1019 3.1003 0 1.7063 1.3966 3.0973 3.1019 3.0973v3.8296c-3.8209 0-6.9314-3.1065-6.9314-6.9263 0-3.8219 3.1106-6.9294 6.9309-6.9294h5.7489v-1.9378c0-3.1785 2.5873-5.7663 5.7699-5.7663 3.1755 0 5.7597 2.5878 5.7597 5.7663 0 3.1785-2.5842 5.7663-5.7597 5.7663h-1.9419v19.128zm0-22.957h1.9419c1.069 0 1.9342-0.86873 1.9342-1.9378 0-1.069-0.86515-1.9378-1.9342-1.9378-1.0721 0-1.9419 0.86873-1.9419 1.9378z"/>
  </g>
 </g>
</svg>
